<svg xmlns="http://www.w3.org/2000/svg" data-name="Layer 1" viewBox="0 0 100 125" x="0px" y="0px"><title>Artboard 20</title><path d="M7.14,87.87h4.78A13.77,13.77,0,0,0,24.74,96.8a13.52,13.52,0,0,0,12.83-8.92h13A13.77,13.77,0,0,0,63.43,96.8a13.52,13.52,0,0,0,12.83-8.92H81.9A5.88,5.88,0,0,0,87.77,82V58a12.18,12.18,0,0,1-16.31-.71c-6.19-6.08-16.24-17.87-17.92-31.53H41.77a5.89,5.89,0,0,0-5.89,5.86l0,.68H21.48a6.2,6.2,0,0,0-5.26,2.89L2.73,56.44a9.34,9.34,0,0,0-1.46,5V82A5.88,5.88,0,0,0,7.14,87.87ZM63.43,78a5.21,5.21,0,0,1,5.12,5.12A5.12,5.12,0,1,1,63.43,78ZM24.74,88.27a5.24,5.24,0,0,1-5.15-5.15A5.17,5.17,0,0,1,24.74,78a5.24,5.24,0,0,1,5.15,5.15A5.17,5.17,0,0,1,24.74,88.27ZM12.54,56.65l9.53-15a1.13,1.13,0,0,1,1-.53h8.64a1.13,1.13,0,0,1,1.13,1.13v15a1.13,1.13,0,0,1-1.13,1.13H13.49A1.13,1.13,0,0,1,12.54,56.65Z"/><path d="M80,3.2q-.6,0-1.21,0A18.87,18.87,0,0,0,61.3,22.14c.12,12.54,10.54,24.33,15.78,29.48a4.2,4.2,0,0,0,5.89,0c5.27-5.18,15.77-17.09,15.77-29.7A18.72,18.72,0,0,0,80,3.2Zm0,26.2a7.49,7.49,0,1,1,7.49-7.49A7.49,7.49,0,0,1,80,29.41Z"/><text x="0" y="115" fill="#000000" font-size="5px" font-weight="bold" font-family="'Helvetica Neue', Helvetica, Arial-Unicode, Arial, Sans-serif">Created by Gregor Cresnar</text><text x="0" y="120" fill="#000000" font-size="5px" font-weight="bold" font-family="'Helvetica Neue', Helvetica, Arial-Unicode, Arial, Sans-serif">from the Noun Project</text></svg>